<?xml version="1.0" encoding="UTF-8"?>
<svg id="Layer_1" data-name="Layer 1" xmlns="http://www.w3.org/2000/svg" viewBox="0 0 103.34 103.34">
  <defs>
    <style>
      .cls-1 {
        fill: #025aa5;
      }

      .cls-2 {
        fill: #ffd840;
      }
    </style>
  </defs>
  <circle class="cls-1" cx="51.67" cy="51.67" r="51.67"/>
  <g>
    <polygon class="cls-2" points="56.11 34.74 51.72 31.48 47.43 34.6 49 29.47 44.61 26.21 49.98 26.3 51.55 21.17 53.29 26.35 58.66 26.44 54.37 29.56 56.11 34.74"/>
    <polygon class="cls-2" points="74.96 39.26 69.59 38.29 67.12 42.98 66.26 37.68 60.88 36.7 65.73 34.41 64.88 29.11 68.73 32.99 73.58 30.7 71.11 35.39 74.96 39.26"/>
    <polygon class="cls-2" points="82.43 52.01 77.21 53.65 77.21 58.95 73.99 54.66 68.77 56.3 71.99 52.01 68.77 47.72 73.99 49.36 77.21 45.07 77.21 50.37 82.43 52.01"/>
    <polygon class="cls-2" points="74.49 65.42 70.32 68.95 72.37 73.84 67.74 71.13 63.57 74.67 64.87 69.46 60.24 66.76 65.68 66.25 66.99 61.04 69.05 65.93 74.49 65.42"/>
    <polygon class="cls-2" points="55.04 68.34 53.63 73.62 58.11 76.45 52.77 76.89 51.36 82.17 49.46 77.15 44.11 77.59 48.28 74.05 46.38 69.04 50.86 71.87 55.04 68.34"/>
    <polygon class="cls-2" points="35.77 60.82 37.08 66.13 42.37 66.46 37.9 69.41 39.21 74.72 35.13 71.24 30.65 74.19 32.6 69.08 28.52 65.6 33.81 65.93 35.77 60.82"/>
    <polygon class="cls-2" points="25.72 45.02 29 49.39 34 47.62 31.03 52.09 34.32 56.46 29.2 54.86 26.23 59.33 26.03 53.86 20.91 52.26 25.91 50.49 25.72 45.02"/>
    <polygon class="cls-2" points="29.88 30.31 34.72 32.84 38.47 29.09 37.72 34.4 42.57 36.93 37.25 37.69 36.5 43 33.97 38.15 28.66 38.9 32.41 35.16 29.88 30.31"/>
  </g>
</svg>