<?xml version="1.0" encoding="UTF-8"?>
<svg id="Layer_1" data-name="Layer 1" xmlns="http://www.w3.org/2000/svg" viewBox="0 0 1080 1080">
  <defs>
    <style>
      .cls-1 {
        fill: #a02702;
      }

      .cls-2 {
        fill: #fff;
      }

      .cls-3 {
        fill: #c23400;
      }
    </style>
  </defs>
  <g>
    <path class="cls-3" d="M452.6,581.88l-224.73-228.9,626.15,8.2,225.91,185.63c0-2.28.07-4.53.07-6.81C1080,241.77,838.23,0,540,0S0,241.77,0,540s241.77,540,540,540c30.08,0,59.6-2.5,88.36-7.24l-395.96-308.21,220.21-182.64v-.04Z"/>
    <path class="cls-1" d="M1079.93,546.77l-225.91-185.63-626.15-8.2,224.73,228.9-220.21,182.64,395.96,308.21c254.03-41.81,448.29-260.88,451.57-525.96v.04Z"/>
  </g>
  <g>
    <path class="cls-2" d="M571.26,557.79c-15.36,8.41-34.18,8.38-49.51-.07l-301.9-166.13c0,.5-.07,1-.07,1.53v341.93c0,22.53,18.25,40.81,40.81,40.81h552.65c22.53,0,40.81-18.25,40.81-40.81v-331.56c-3.49,1.78-6.67,3.46-9.41,4.95l-273.35,149.38-.04-.04Z"/>
    <path class="cls-2" d="M813.21,322.18H260.55c-22.03,0-39.92,17.47-40.7,39.28l301.9,166.13c15.33,8.45,34.15,8.48,49.51.07l273.35-149.38c2.74-1.5,5.92-3.17,9.41-4.95v-10.34c0-22.53-18.25-40.81-40.81-40.81h0Z"/>
  </g>
</svg>