<?xml version="1.0" encoding="UTF-8"?>
<svg id="Layer_1" data-name="Layer 1" xmlns="http://www.w3.org/2000/svg" viewBox="0 0 103.34 103.34">
  <defs>
    <style>
      .cls-1 {
        fill: #025aa5;
      }

      .cls-2 {
        fill: #ffd840;
      }
    </style>
  </defs>
  <path class="cls-1" d="M.77,60.51c2.63,15.24,11.92,28.19,24.78,35.74v-35.74H.77Z"/>
  <path class="cls-1" d="M103.1,46.68C100.58,20.48,78.52,0,51.67,0c-4.23,0-8.34.52-12.28,1.48v45.2h63.71Z"/>
  <path class="cls-1" d="M39.39,101.86c3.94.96,8.05,1.48,12.28,1.48,25.52,0,46.71-18.51,50.9-42.83h-63.18v41.35Z"/>
  <path class="cls-1" d="M25.55,7.09C11.62,15.27,1.87,29.78.24,46.68h25.31V7.09Z"/>
  <path class="cls-2" d="M103.1,46.68h-63.71V1.48c-4.93,1.2-9.58,3.11-13.84,5.61v39.58H.24c-.16,1.64-.24,3.31-.24,4.99,0,3.02.27,5.97.77,8.84h24.78v35.74c4.26,2.5,8.91,4.41,13.84,5.61v-41.35h63.18c.5-2.87.77-5.83.77-8.84,0-1.69-.09-3.35-.24-4.99Z"/>
</svg>