<?xml version="1.0" encoding="UTF-8" standalone="no"?><svg xmlns="http://www.w3.org/2000/svg" xmlns:xlink="http://www.w3.org/1999/xlink" contentScriptType="application/ecmascript" contentStyleType="text/css" height="196px" preserveAspectRatio="none" style="width:370px;height:196px;" version="1.1" viewBox="0 0 370 196" width="370px" zoomAndPan="magnify"><defs><filter height="300%" id="f1bhh6ndbi2bhn" width="300%" x="-1" y="-1"><feGaussianBlur result="blurOut" stdDeviation="2.0"/><feColorMatrix in="blurOut" result="blurOut2" type="matrix" values="0 0 0 0 0 0 0 0 0 0 0 0 0 0 0 0 0 0 .4 0"/><feOffset dx="4.0" dy="4.0" in="blurOut2" result="blurOut3"/><feBlend in="SourceGraphic" in2="blurOut3" mode="normal"/></filter></defs><g><rect fill="#FEFECE" filter="url(#f1bhh6ndbi2bhn)" height="50.2656" rx="12.5" ry="12.5" style="stroke: #A80036; stroke-width: 1.5;" width="99" x="228" y="8"/><line style="stroke: #A80036; stroke-width: 1.5;" x1="228" x2="327" y1="34.2969" y2="34.2969"/><text fill="#000000" font-family="sans-serif" font-size="14" lengthAdjust="spacingAndGlyphs" textLength="79" x="238" y="25.9951">redux store</text><text fill="#000000" font-family="sans-serif" font-size="12" lengthAdjust="spacingAndGlyphs" textLength="33" x="233" y="50.4355">state</text><rect fill="#FEFECE" filter="url(#f1bhh6ndbi2bhn)" height="50.2656" rx="12.5" ry="12.5" style="stroke: #A80036; stroke-width: 1.5;" width="139" x="219" y="135"/><line style="stroke: #A80036; stroke-width: 1.5;" x1="219" x2="358" y1="161.2969" y2="161.2969"/><text fill="#000000" font-family="sans-serif" font-size="14" lengthAdjust="spacingAndGlyphs" textLength="119" x="229" y="152.9951">react component</text><text fill="#000000" font-family="sans-serif" font-size="12" lengthAdjust="spacingAndGlyphs" textLength="36" x="224" y="177.4355">props</text><rect fill="#FEFECE" filter="url(#f1bhh6ndbi2bhn)" height="50" rx="12.5" ry="12.5" style="stroke: #A80036; stroke-width: 1.5;" width="59" x="6" y="135"/><line style="stroke: #A80036; stroke-width: 1.5;" x1="6" x2="65" y1="161.2969" y2="161.2969"/><text fill="#000000" font-family="sans-serif" font-size="14" lengthAdjust="spacingAndGlyphs" textLength="39" x="16" y="152.9951">event</text><rect fill="#FEFECE" filter="url(#f1bhh6ndbi2bhn)" height="50" rx="12.5" ry="12.5" style="stroke: #A80036; stroke-width: 1.5;" width="62" x="69.5" y="8"/><line style="stroke: #A80036; stroke-width: 1.5;" x1="69.5" x2="131.5" y1="34.2969" y2="34.2969"/><text fill="#000000" font-family="sans-serif" font-size="14" lengthAdjust="spacingAndGlyphs" textLength="42" x="79.5" y="25.9951">action</text><!--MD5=[b44c85f632fef01800d9befa4c90bb74]
link store to comp--><path d="M279.62,58.1 C281.42,78.59 284.02,108.08 285.94,129.88 " fill="none" id="store-&gt;comp" style="stroke: #A80036; stroke-width: 1.0;"/><polygon fill="#A80036" points="286.39,134.97,289.578,125.6514,285.9476,129.9896,281.6094,126.3592,286.39,134.97" style="stroke: #A80036; stroke-width: 1.0;"/><text fill="#000000" font-family="sans-serif" font-size="13" lengthAdjust="spacingAndGlyphs" textLength="42" x="284.5" y="101.0669">render</text><!--MD5=[99c27cadb16f63fd6d0653aba3ba47bc]
reverse link event to comp--><path d="M70.47,160 C108.63,160 170.72,160 218.89,160 " fill="none" id="event&lt;-comp" style="stroke: #A80036; stroke-width: 1.0;"/><polygon fill="#A80036" points="65.02,160,74.02,164,70.02,160,74.02,156,65.02,160" style="stroke: #A80036; stroke-width: 1.0;"/><text fill="#000000" font-family="sans-serif" font-size="13" lengthAdjust="spacingAndGlyphs" textLength="117" x="83.5" y="153.0669">user UI interaction</text><!--MD5=[355448a9407b23b453537eb3c772a683]
reverse link action to event--><path d="M85.61,62.64 C74.23,84.52 58.73,114.33 47.99,134.97 " fill="none" id="action&lt;-event" style="stroke: #A80036; stroke-width: 1.0;"/><polygon fill="#A80036" points="87.97,58.1,80.2721,64.2435,85.6655,62.5373,87.3717,67.9307,87.97,58.1" style="stroke: #A80036; stroke-width: 1.0;"/><text fill="#000000" font-family="sans-serif" font-size="13" lengthAdjust="spacingAndGlyphs" textLength="48" x="73.5" y="101.0669">handler</text><!--MD5=[d5e19190eecd01b4e14b96761ea70e07]
link action to store--><path d="M131.74,33 C156.88,33 192.83,33 222.73,33 " fill="none" id="action-&gt;store" style="stroke: #A80036; stroke-width: 1.0;"/><polygon fill="#A80036" points="227.86,33,218.86,29,222.86,33,218.86,37,227.86,33" style="stroke: #A80036; stroke-width: 1.0;"/><text fill="#000000" font-family="sans-serif" font-size="13" lengthAdjust="spacingAndGlyphs" textLength="49" x="155.25" y="26.0669">reducer</text><!--MD5=[f8f730262ecfd94b9aaa08dbe7c83ae8]
@startuml img/basic_arch

state "redux store" as store
store: state
state "react component" as comp
comp: props
state event
state action

store -down-> comp: render
comp -left-> event: user UI interaction
event -up-> action: handler
action -right-> store: reducer

@enduml

PlantUML version 1.2020.07(Sun Apr 19 13:42:40 CEST 2020)
(GPL source distribution)
Java Runtime: OpenJDK Runtime Environment
JVM: OpenJDK 64-Bit Server VM
Java Version: 14.0.1+7
Operating System: Linux
Default Encoding: UTF-8
Language: en
Country: US
--></g></svg>