<?xml version="1.0" encoding="UTF-8" standalone="no"?><svg xmlns="http://www.w3.org/2000/svg" xmlns:xlink="http://www.w3.org/1999/xlink" contentScriptType="application/ecmascript" contentStyleType="text/css" height="196px" preserveAspectRatio="none" style="width:419px;height:196px;" version="1.1" viewBox="0 0 419 196" width="419px" zoomAndPan="magnify"><defs><filter height="300%" id="fd6zfd5ibzypt" width="300%" x="-1" y="-1"><feGaussianBlur result="blurOut" stdDeviation="2.0"/><feColorMatrix in="blurOut" result="blurOut2" type="matrix" values="0 0 0 0 0 0 0 0 0 0 0 0 0 0 0 0 0 0 .4 0"/><feOffset dx="4.0" dy="4.0" in="blurOut2" result="blurOut3"/><feBlend in="SourceGraphic" in2="blurOut3" mode="normal"/></filter></defs><g><rect fill="#FEFECE" filter="url(#fd6zfd5ibzypt)" height="50.2656" rx="12.5" ry="12.5" style="stroke: #A80036; stroke-width: 1.5;" width="99" x="240" y="8"/><line style="stroke: #A80036; stroke-width: 1.5;" x1="240" x2="339" y1="34.2969" y2="34.2969"/><text fill="#000000" font-family="sans-serif" font-size="14" lengthAdjust="spacingAndGlyphs" textLength="79" x="250" y="25.9951">redux store</text><text fill="#000000" font-family="sans-serif" font-size="12" lengthAdjust="spacingAndGlyphs" textLength="33" x="245" y="50.4355">state</text><rect fill="#FEFECE" filter="url(#fd6zfd5ibzypt)" height="50.2656" rx="12.5" ry="12.5" style="stroke: #A80036; stroke-width: 1.5;" width="139" x="224" y="135"/><line style="stroke: #A80036; stroke-width: 1.5;" x1="224" x2="363" y1="161.2969" y2="161.2969"/><text fill="#000000" font-family="sans-serif" font-size="14" lengthAdjust="spacingAndGlyphs" textLength="119" x="234" y="152.9951">react component</text><text fill="#000000" font-family="sans-serif" font-size="12" lengthAdjust="spacingAndGlyphs" textLength="36" x="229" y="177.4355">props</text><rect fill="#FEFECE" filter="url(#fd6zfd5ibzypt)" height="50" rx="12.5" ry="12.5" style="stroke: #A80036; stroke-width: 1.5;" width="59" x="11" y="135"/><line style="stroke: #A80036; stroke-width: 1.5;" x1="11" x2="70" y1="161.2969" y2="161.2969"/><text fill="#000000" font-family="sans-serif" font-size="14" lengthAdjust="spacingAndGlyphs" textLength="39" x="21" y="152.9951">event</text><rect fill="#FEFECE" filter="url(#fd6zfd5ibzypt)" height="50" rx="12.5" ry="12.5" style="stroke: #A80036; stroke-width: 1.5;" width="105" x="6" y="8"/><line style="stroke: #A80036; stroke-width: 1.5;" x1="6" x2="111" y1="34.2969" y2="34.2969"/><text fill="#000000" font-family="sans-serif" font-size="14" lengthAdjust="spacingAndGlyphs" textLength="85" x="16" y="25.9951">redux action</text><!--MD5=[b44c85f632fef01800d9befa4c90bb74]
link store to comp--><path d="M290.27,58.1 C290.93,78.59 291.87,108.08 292.57,129.88 " fill="none" id="store-&gt;comp" style="stroke: #A80036; stroke-width: 1.0;"/><polygon fill="#A80036" points="292.73,134.97,296.4453,125.8488,292.5729,129.9725,288.4493,126.1001,292.73,134.97" style="stroke: #A80036; stroke-width: 1.0;"/><text fill="#000000" font-family="sans-serif" font-size="13" lengthAdjust="spacingAndGlyphs" textLength="115" x="292.5" y="101.0669">mapStateToProps</text><!--MD5=[99c27cadb16f63fd6d0653aba3ba47bc]
reverse link event to comp--><path d="M75.47,160 C113.63,160 175.72,160 223.89,160 " fill="none" id="event&lt;-comp" style="stroke: #A80036; stroke-width: 1.0;"/><polygon fill="#A80036" points="70.02,160,79.02,164,75.02,160,79.02,156,70.02,160" style="stroke: #A80036; stroke-width: 1.0;"/><text fill="#000000" font-family="sans-serif" font-size="13" lengthAdjust="spacingAndGlyphs" textLength="117" x="88.5" y="153.0669">user UI interaction</text><!--MD5=[355448a9407b23b453537eb3c772a683]
reverse link action to event--><path d="M54.3,63.19 C51.15,85.02 46.91,114.5 43.96,134.97 " fill="none" id="action&lt;-event" style="stroke: #A80036; stroke-width: 1.0;"/><polygon fill="#A80036" points="55.03,58.1,49.7873,66.4375,54.3169,63.0489,57.7055,67.5785,55.03,58.1" style="stroke: #A80036; stroke-width: 1.0;"/><text fill="#000000" font-family="sans-serif" font-size="13" lengthAdjust="spacingAndGlyphs" textLength="48" x="52.5" y="101.0669">handler</text><!--MD5=[d5e19190eecd01b4e14b96761ea70e07]
link action to store--><path d="M111.21,33 C148.01,33 197.04,33 234.37,33 " fill="none" id="action-&gt;store" style="stroke: #A80036; stroke-width: 1.0;"/><polygon fill="#A80036" points="239.79,33,230.79,29,234.79,33,230.79,37,239.79,33" style="stroke: #A80036; stroke-width: 1.0;"/><text fill="#000000" font-family="sans-serif" font-size="13" lengthAdjust="spacingAndGlyphs" textLength="89" x="131" y="26.0669">redux reducer</text><!--MD5=[19d16acf10d0006cd989382a7e259943]
@startuml img/basic_arch

state "redux store" as store
store: state
state "react component" as comp
comp: props
state event
state "redux action" as action

store -down-> comp: mapStateToProps
comp -left-> event: user UI interaction
event -up-> action: handler
action -right-> store: redux reducer

@enduml

PlantUML version 1.2020.07(Sun Apr 19 13:42:40 CEST 2020)
(GPL source distribution)
Java Runtime: OpenJDK Runtime Environment
JVM: OpenJDK 64-Bit Server VM
Java Version: 14.0.1+7
Operating System: Linux
Default Encoding: UTF-8
Language: en
Country: US
--></g></svg>