<?xml version="1.0" encoding="UTF-8"?>
<svg id="Layer_1" data-name="Layer 1" xmlns="http://www.w3.org/2000/svg" viewBox="0 0 553.89 498">
  <defs>
    <style>
      .cls-1 {
        fill: #5e5e5e;
      }
    </style>
  </defs>
  <circle class="cls-1" cx="197.6" cy="110" r="110"/>
  <path class="cls-1" d="M259.3,280.46c-6.97,20.84-20.86,77.24.49,151.75,1.33,4.65-2.15,9.3-7,9.3H7.35c-3.93,0-7.15-3.11-7.28-7.03-1.14-34.29,8.07-181.66,252.83-163.57,4.73.35,7.91,5.05,6.4,9.55Z"/>
  <path class="cls-1" d="M550.09,394.31c-5.72-5.29-13.85-12.69-20.28-18.13-1.64-1.39-2.61-3.39-2.69-5.54-.24-6.73-1.06-16.25-1.55-21.6-.23-2.53.81-5.01,2.78-6.62l19.67-15.98c5.24-4.26,6.51-11.74,2.95-17.49l-21.8-35.27c-3.45-5.59-10.44-7.86-16.52-5.36l-21.99,9.02c-3.75,1.54-8.02,1-11.32-1.36-3.73-2.67-7.95-4.99-11.14-6.61-3.19-1.61-5.47-4.58-6.2-8.08l-6.3-30.44c-1.19-5.74-6.25-9.86-12.11-9.86h-43.34c-6.18,0-11.41,4.56-12.25,10.68-.95,6.96-2.19,16.56-3.22,26.41-.37,3.55-2.55,6.67-5.78,8.17-6.82,3.18-11.61,6.19-14.64,8.37-2.81,2.02-6.47,2.43-9.69,1.15l-25.71-10.28c-5.07-2.03-10.86-.11-13.72,4.54l-24.42,39.69c-2.74,4.44-2.05,10.19,1.67,13.86,5.34,5.27,13.16,12.74,19.76,18.05,3.15,2.54,4.88,6.47,4.53,10.5-.44,5.01.25,10.8,1.01,15.17.74,4.27-.86,8.61-4.16,11.41l-20.36,17.28c-4.06,3.45-4.98,9.35-2.16,13.87l25.64,41.03c2.63,4.21,7.82,6.08,12.52,4.48,7.04-2.38,17.39-6.13,25.76-10.13,2.64-1.27,5.77-.87,8.01,1.02,4.27,3.6,12.07,7.98,16.28,10.24,1.84.98,3.17,2.7,3.68,4.71l7.09,27.83c1.34,5.27,6.09,8.96,11.54,8.96h43.44c5.86,0,10.84-4.25,11.76-10.03,1.03-6.5,2.34-15.15,3.28-22.83.54-4.4,3.12-8.29,6.95-10.52,4.47-2.61,8.73-5.39,12.01-7.61,3.97-2.7,9.03-3.2,13.46-1.35l20.33,8.47c5.37,2.24,11.57.23,14.61-4.73l24.67-40.23c2.95-4.81,2.09-11.02-2.05-14.85ZM421.52,402c-23.47,0-42.5-19.03-42.5-42.5s19.03-42.5,42.5-42.5,42.5,19.03,42.5,42.5-19.03,42.5-42.5,42.5Z"/>
</svg>