<svg width="146" height="52" viewBox="0 0 146 52" fill="none" xmlns="http://www.w3.org/2000/svg">
<g filter="url(#filter0_f_601_8)">
<path d="M67.1193 37.3409C65.5923 37.3409 64.2713 36.9858 63.1562 36.2756C62.0412 35.5582 61.1783 34.5675 60.5675 33.3033C59.9638 32.032 59.6619 30.5689 59.6619 28.9141C59.6619 27.2663 59.9638 25.8033 60.5675 24.5249C61.1783 23.2393 62.0199 22.2344 63.0923 21.5099C64.1719 20.7784 65.4183 20.4126 66.8317 20.4126C67.7195 20.4126 68.5753 20.576 69.3991 20.9027C70.223 21.2223 70.9616 21.7159 71.6151 22.3835C72.2756 23.044 72.7976 23.8786 73.1811 24.8871C73.5646 25.8885 73.7564 27.0746 73.7564 28.4453V29.3828H60.9723V27.7102H71.8175C71.8175 26.6591 71.6044 25.7145 71.1783 24.8764C70.7592 24.0312 70.1733 23.3636 69.4205 22.8736C68.6747 22.3835 67.8118 22.1385 66.8317 22.1385C65.7947 22.1385 64.8821 22.4155 64.0938 22.9695C63.3054 23.5234 62.6875 24.255 62.2401 25.1641C61.7997 26.0732 61.576 27.0675 61.5689 28.147V29.1484C61.5689 30.4482 61.7926 31.5845 62.2401 32.5575C62.6946 33.5234 63.3374 34.2727 64.1683 34.8054C64.9993 35.3381 65.983 35.6044 67.1193 35.6044C67.8935 35.6044 68.5717 35.4837 69.1541 35.2422C69.7436 35.0007 70.2372 34.6776 70.6349 34.2727C71.0398 33.8608 71.3452 33.4098 71.5511 32.9197L73.3516 33.5057C73.103 34.1946 72.6946 34.8303 72.1264 35.4126C71.5653 35.995 70.8622 36.4638 70.017 36.8189C69.179 37.1669 68.2131 37.3409 67.1193 37.3409ZM83.8265 37.3409C82.4842 37.3409 81.3088 36.9858 80.3002 36.2756C79.2917 35.5653 78.5034 34.5746 77.9352 33.3033C77.3741 32.032 77.0936 30.5511 77.0936 28.8608C77.0936 27.1776 77.3741 25.7038 77.9352 24.4396C78.5034 23.1683 79.2953 22.1811 80.3109 21.478C81.3265 20.7678 82.5091 20.4126 83.8585 20.4126C84.8528 20.4126 85.6802 20.5902 86.3407 20.9453C87.0012 21.2933 87.5304 21.7266 87.9281 22.245C88.3258 22.7635 88.6348 23.2678 88.8549 23.7578H89.0254V15.1818H90.9324V37H89.0787V33.9638H88.8549C88.6348 34.4609 88.3223 34.9723 87.9174 35.4979C87.5126 36.0163 86.9764 36.4531 86.3088 36.8082C85.6483 37.1634 84.8208 37.3409 83.8265 37.3409ZM84.0502 35.6044C85.1085 35.6044 86.0105 35.3168 86.7562 34.7415C87.502 34.1591 88.0701 33.3601 88.4608 32.3445C88.8585 31.3217 89.0574 30.1499 89.0574 28.8288C89.0574 27.522 88.862 26.3679 88.4714 25.3665C88.0808 24.358 87.5126 23.5696 86.7669 23.0014C86.0211 22.4261 85.1156 22.1385 84.0502 22.1385C82.9565 22.1385 82.0332 22.4368 81.2804 23.0334C80.5346 23.6229 79.9664 24.4219 79.5758 25.4304C79.1923 26.4389 79.0005 27.5717 79.0005 28.8288C79.0005 30.1001 79.1958 31.2472 79.5865 32.2699C79.9771 33.2926 80.5453 34.1058 81.291 34.7095C82.0439 35.3061 82.9636 35.6044 84.0502 35.6044ZM106.731 30.7464V20.6364H108.628V37H106.731V34.2834H106.582C106.199 35.1214 105.591 35.821 104.76 36.3821C103.93 36.9361 102.914 37.2131 101.714 37.2131C100.67 37.2131 99.7427 36.9858 98.9331 36.5312C98.1234 36.0696 97.4877 35.3949 97.0261 34.5071C96.5645 33.6193 96.3336 32.5291 96.3336 31.2365V20.6364H98.2299V31.1193C98.2299 32.3977 98.6064 33.4276 99.3592 34.2088C100.112 34.983 101.078 35.37 102.257 35.37C102.996 35.37 103.706 35.1925 104.388 34.8374C105.069 34.4822 105.631 33.9638 106.071 33.282C106.511 32.593 106.731 31.7479 106.731 30.7464ZM118.069 15.1818V37H112.796V15.1818H118.069ZM129.444 37H121.38V15.1818H129.434C131.657 15.1818 133.571 15.6186 135.176 16.4922C136.788 17.3587 138.031 18.6087 138.905 20.2422C139.778 21.8686 140.215 23.8146 140.215 26.0803C140.215 28.353 139.778 30.3061 138.905 31.9396C138.038 33.5732 136.799 34.8267 135.187 35.7003C133.574 36.5668 131.66 37 129.444 37ZM126.653 32.5043H129.242C130.464 32.5043 131.497 32.2983 132.342 31.8864C133.194 31.4673 133.837 30.7891 134.27 29.8516C134.711 28.907 134.931 27.6499 134.931 26.0803C134.931 24.5107 134.711 23.2607 134.27 22.3303C133.83 21.3928 133.18 20.718 132.321 20.3061C131.469 19.8871 130.417 19.6776 129.167 19.6776H126.653V32.5043Z" fill="white"/>
</g>
<g filter="url(#filter1_f_601_8)">
<path d="M25.9998 1C12.1929 1 1 12.193 1 25.9999C1 39.807 12.1929 51 25.9998 51C39.8069 51 50.9998 39.807 50.9998 25.9999C50.9998 12.193 39.8069 1 25.9998 1Z" fill="#FF4500"/>
<path d="M35.1808 34.9071C35.1808 35.8758 34.3953 36.6613 33.4265 36.6613H18.5299C17.5609 36.6613 16.7756 35.8758 16.7756 34.9071V29.9291H35.1808V34.9071Z" fill="white"/>
<path d="M35.1808 27.7734H16.7756V23.8727H31.3185V20.9959C31.3185 18.0067 28.8867 15.5751 25.8978 15.5751C22.9086 15.5751 20.4768 18.0067 20.4768 20.9959H17.6914C17.6914 16.4708 21.3727 12.7895 25.8978 12.7895C30.4228 12.7895 34.1039 16.4708 34.1039 20.9959V23.8727H34.2216H35.1808V27.7734Z" fill="white"/>
</g>
<defs>
<filter id="filter0_f_601_8" x="58.6619" y="14.1818" width="82.5531" height="24.1591" filterUnits="userSpaceOnUse" color-interpolation-filters="sRGB">
<feFlood flood-opacity="0" result="BackgroundImageFix"/>
<feBlend mode="normal" in="SourceGraphic" in2="BackgroundImageFix" result="shape"/>
<feGaussianBlur stdDeviation="0.5" result="effect1_foregroundBlur_601_8"/>
</filter>
<filter id="filter1_f_601_8" x="0" y="0" width="51.9998" height="52" filterUnits="userSpaceOnUse" color-interpolation-filters="sRGB">
<feFlood flood-opacity="0" result="BackgroundImageFix"/>
<feBlend mode="normal" in="SourceGraphic" in2="BackgroundImageFix" result="shape"/>
<feGaussianBlur stdDeviation="0.5" result="effect1_foregroundBlur_601_8"/>
</filter>
</defs>
</svg>
