<?xml version="1.0" encoding="UTF-8"?>
<svg id="Layer_1" data-name="Layer 1" xmlns="http://www.w3.org/2000/svg" viewBox="0 0 278.74 224.41">
  <defs>
    <style>
      .cls-1 {
        fill: #db3a00;
      }

      .cls-2 {
        fill: #fff;
      }

      .cls-3 {
        fill: #ff4500;
      }
    </style>
  </defs>
  <path class="cls-2" d="M102.9,166.62c-2.17,0-4.02-.77-5.56-2.31s-2.31-3.39-2.31-5.56v-4.46c0-3.32.83-6.17,2.49-8.53,1.66-2.36,3.81-4.16,6.43-5.38,5.86-2.62,11.48-4.59,16.86-5.91s10.78-1.97,16.21-1.97c1.84,0,3.67.07,5.51.2,1.84.13,3.67.37,5.51.72.7.18,1.22.49,1.57.94s.52,1.01.52,1.68c0,4.37,1.01,8.46,3.02,12.27,2.01,3.81,4.81,6.93,8.4,9.38.53.35.95.78,1.25,1.3s.46,1.09.46,1.72v1.97c0,1.12-.38,2.05-1.13,2.8s-1.69,1.13-2.81,1.13h-56.43,0ZM137.02,122.01c-5.51,0-10.17-1.9-13.98-5.71s-5.71-8.46-5.71-13.98,1.9-10.17,5.71-13.98,8.46-5.71,13.98-5.71,10.17,1.9,13.98,5.71,5.71,8.46,5.71,13.98-1.9,10.17-5.71,13.98c-3.81,3.81-8.46,5.71-13.98,5.71ZM176.39,138.67c1.49,0,2.73-.5,3.74-1.51s1.51-2.25,1.51-3.74-.5-2.73-1.51-3.74-2.25-1.51-3.74-1.51-2.73.5-3.74,1.51-1.51,2.25-1.51,3.74.5,2.73,1.51,3.74,2.25,1.51,3.74,1.51ZM177.57,184.47l-5.87-5.87c-.2-.2-.38-.64-.56-1.34v-23.6c-3.85-1.15-7-3.32-9.45-6.51-2.45-3.19-3.67-6.89-3.67-11.09,0-5.07,1.79-9.4,5.38-12.99s7.92-5.38,12.99-5.38,9.4,1.79,12.99,5.38,5.38,7.92,5.38,12.99c0,3.94-1.12,7.44-3.35,10.5-2.23,3.06-5.05,5.25-8.46,6.56l5.12,5.12c.44.41.66.88.66,1.42s-.22,1.03-.66,1.47l-4.99,4.99c-.44.41-.66.88-.66,1.42s.22,1.03.66,1.47l4.99,4.99c.44.41.66.88.66,1.42s-.22,1.03-.66,1.47l-7.61,7.61c-.41.44-.88.66-1.42.66s-1.03-.22-1.47-.66v-.03h0Z"/>
  <g>
    <path class="cls-3" d="M68.91,221.55h-28.66v-71.53h28.66c3.93,0,7.11,3.18,7.11,7.11v57.31c0,3.93-3.18,7.11-7.11,7.11Z"/>
    <path class="cls-2" d="M34.22,194.02h-.43c-.83-.02-1.48-.71-1.46-1.53s.72-1.49,1.53-1.46c3.41.08,4.49-.96,4.61-1.54v.08-17.02c0-.83.67-1.5,1.5-1.5s1.5.67,1.5,1.5v17.01c0,.27-.09,1.48-1.25,2.61-1.26,1.24-3.28,1.86-6,1.86h0Z"/>
    <path class="cls-2" d="M38.72,207.86c-6.05,0-10.85-3.06-13.26-5.65-.56-.61-.53-1.56.08-2.12s1.56-.53,2.12.08c.42.45,10,10.37,22.88,0,.65-.52,1.59-.42,2.11.23s.42,1.59-.23,2.11c-4.89,3.94-9.58,5.36-13.7,5.36h0Z"/>
    <path class="cls-2" d="M24.65,183.35c-.83,0-1.5-.67-1.5-1.5v-8.96c0-.83.67-1.5,1.5-1.5s1.5.67,1.5,1.5v8.96c0,.83-.67,1.5-1.5,1.5Z"/>
    <path class="cls-2" d="M56.31,183.56c-.83,0-1.5-.67-1.5-1.5v-8.96c0-.83.67-1.5,1.5-1.5s1.5.67,1.5,1.5v8.96c0,.83-.67,1.5-1.5,1.5Z"/>
    <path class="cls-2" d="M1.5,171.35c-.83,0-1.5-.67-1.5-1.5v-12.59c0-4.98,4.05-9.03,9.03-9.03h13.37c.83,0,1.5.67,1.5,1.5s-.67,1.5-1.5,1.5h-13.37c-3.32,0-6.03,2.7-6.03,6.03v12.59c0,.83-.67,1.5-1.5,1.5Z"/>
    <path class="cls-2" d="M74.31,172.6c-.83,0-1.5-.67-1.5-1.5v-13.37c0-3.32-2.7-6.03-6.03-6.03h-12.59c-.83,0-1.5-.67-1.5-1.5s.67-1.5,1.5-1.5h12.59c4.98,0,9.03,4.05,9.03,9.03v13.37c0,.83-.67,1.5-1.5,1.5Z"/>
    <path class="cls-2" d="M68.47,224.41h-13.37c-.83,0-1.5-.67-1.5-1.5s.67-1.5,1.5-1.5h13.37c3.32,0,6.03-2.7,6.03-6.03v-12.59c0-.83.67-1.5,1.5-1.5s1.5.67,1.5,1.5v12.59c0,4.98-4.05,9.03-9.03,9.03Z"/>
    <path class="cls-2" d="M23.31,223.94h-12.59c-4.98,0-9.03-4.05-9.03-9.03v-13.37c0-.83.67-1.5,1.5-1.5s1.5.67,1.5,1.5v13.37c0,3.32,2.7,6.03,6.03,6.03h12.59c.83,0,1.5.67,1.5,1.5s-.67,1.5-1.5,1.5Z"/>
  </g>
  <path class="cls-1" d="M104.95,81.31h-16.32v-34.45h16.32c2.11,0,3.82,1.71,3.82,3.82v26.8c0,2.11-1.71,3.82-3.82,3.82h0Z"/>
  <path class="cls-3" d="M72.78,46.86h16.32v34.45h-16.32c-2.11,0-3.82-1.71-3.82-3.82v-26.8c0-2.11,1.71-3.82,3.82-3.82h0Z"/>
  <path class="cls-3" d="M110.46,16.37H8.63V5.33c0-2.43,1.97-4.4,4.4-4.4h93.04c2.43,0,4.4,1.97,4.4,4.4v11.04s-.01,0-.01,0Z"/>
  <path class="cls-2" d="M54.84,43.66H13.74c-3.38,0-6.14-2.75-6.14-6.14V6.14c0-3.38,2.75-6.14,6.14-6.14h91.53c3.38,0,6.14,2.75,6.14,6.14v22.19c0,.83-.67,1.5-1.5,1.5s-1.5-.67-1.5-1.5V6.14c0-1.73-1.41-3.14-3.14-3.14H13.74c-1.73,0-3.14,1.41-3.14,3.14v31.39c0,1.73,1.41,3.14,3.14,3.14h41.11c.83,0,1.5.67,1.5,1.5s-.67,1.5-1.5,1.5h0Z"/>
  <path class="cls-2" d="M28.93,32.4c-.83,0-1.5-.67-1.5-1.5V12.83c0-.83.67-1.5,1.5-1.5s1.5.67,1.5,1.5v18.07c0,.83-.67,1.5-1.5,1.5Z"/>
  <path class="cls-2" d="M21.36,28.3c-.49,0-.97-.24-1.26-.68-.45-.69-.26-1.62.44-2.08l15.13-9.88c.69-.45,1.62-.26,2.08.44.46.7.26,1.62-.44,2.08l-15.13,9.88c-.25.17-.54.24-.82.24Z"/>
  <path class="cls-2" d="M36.42,28.42c-.29,0-.58-.08-.84-.26l-14.98-10.11c-.69-.46-.87-1.4-.4-2.08.46-.69,1.4-.87,2.08-.4l14.98,10.11c.69.46.87,1.4.4,2.08-.29.43-.76.66-1.24.66Z"/>
  <path class="cls-2" d="M54.56,31.89c-.83,0-1.5-.67-1.5-1.5V12.32c0-.83.67-1.5,1.5-1.5s1.5.67,1.5,1.5v18.07c0,.83-.67,1.5-1.5,1.5Z"/>
  <path class="cls-2" d="M47,27.8c-.49,0-.97-.24-1.26-.68-.45-.69-.26-1.62.44-2.08l15.13-9.88c.69-.45,1.62-.26,2.08.44.45.69.26,1.62-.44,2.08l-15.13,9.88c-.25.17-.54.24-.82.24Z"/>
  <path class="cls-2" d="M62.05,27.91c-.29,0-.58-.08-.84-.26l-14.98-10.11c-.69-.46-.87-1.4-.4-2.08.46-.69,1.4-.87,2.08-.4l14.98,10.11c.69.46.87,1.4.4,2.08-.29.43-.76.66-1.24.66Z"/>
  <path class="cls-2" d="M102.83,48.27h-28.6v-7.83c0-6.47,5.27-11.74,11.74-11.74h5.13c6.47,0,11.74,5.27,11.74,11.74v7.83h0ZM77.23,45.27h22.6v-4.83c0-4.82-3.92-8.74-8.74-8.74h-5.13c-4.82,0-8.74,3.92-8.74,8.74v4.83h0Z"/>
  <path class="cls-2" d="M103.56,82.91h-30.62c-3.44,0-6.24-2.8-6.24-6.24v-24.78c0-3.44,2.8-6.24,6.24-6.24h30.62c3.44,0,6.24,2.8,6.24,6.24v24.78c0,3.44-2.8,6.24-6.24,6.24ZM72.94,48.65c-1.79,0-3.24,1.45-3.24,3.24v24.78c0,1.79,1.45,3.24,3.24,3.24h30.62c1.79,0,3.24-1.45,3.24-3.24v-24.78c0-1.79-1.45-3.24-3.24-3.24,0,0-30.62,0-30.62,0Z"/>
  <path class="cls-2" d="M88.25,70.76c-3.58,0-6.49-2.91-6.49-6.49s2.91-6.49,6.49-6.49,6.49,2.91,6.49,6.49-2.91,6.49-6.49,6.49ZM88.25,60.79c-1.92,0-3.49,1.56-3.49,3.49s1.56,3.49,3.49,3.49,3.49-1.56,3.49-3.49-1.56-3.49-3.49-3.49Z"/>
  <path class="cls-3" d="M218.5,111.48h-.83V28.46h.83c17.94,0,32.48,14.54,32.48,32.48v18.05c0,17.94-14.54,32.48-32.48,32.48h0Z"/>
  <path class="cls-2" d="M218.82,102.28c-6.08,0-11.11-1.46-15.04-4.36-6.87-5.09-7.73-12.75-7.8-13.52-.08-.59-.71-5.9-.57-24.46.15-8.55,5.85-13,6.1-13.18.66-.5,1.6-.38,2.1.28s.38,1.6-.28,2.1c-.21.16-4.79,3.81-4.92,10.84-.14,18.98.54,23.99.55,24.04v.1c.02.07.66,7.01,6.65,11.42,5.36,3.94,13.3,4.78,23.59,2.48.81-.18,1.61.33,1.79,1.14s-.33,1.61-1.14,1.79c-3.99.89-7.67,1.34-11.03,1.34h0Z"/>
  <path class="cls-2" d="M239.83,68.22c-.83,0-1.5-.67-1.5-1.5,0-3.76-.61-13.19-6.23-19.73-10.52-10.34-21.74-3.06-22.21-2.75-.69.46-1.62.28-2.08-.41s-.28-1.62.41-2.08c.14-.09,13.73-9.02,26.03,3.14l.08.09c6.32,7.3,7,17.63,7,21.73,0,.83-.67,1.5-1.5,1.5h0Z"/>
  <path class="cls-2" d="M217.89,92.83c-2.39,0-5.22-1.37-7.48-3.71-2.84-2.94-4.22-6.75-3.69-10.2.13-.82.89-1.37,1.71-1.25.82.13,1.38.89,1.25,1.71-.39,2.52.68,5.38,2.88,7.65,1.82,1.89,4.09,2.98,5.77,2.77,4.02-.23,6.59-2.75,8.05-4.82.71-1,1.09-2.17,1.12-3.38.1-4.52.29-15.6-.04-20.99-.16-2.64-1.2-4.82-2.99-6.29-1.98-1.63-4.73-2.31-7.74-1.91-3.62.48-5.6,3.83-6.45,5.79-.38.87-.58,1.8-.58,2.75v12.71c0,.83-.67,1.5-1.5,1.5s-1.5-.67-1.5-1.5v-12.71c0-1.37.28-2.7.83-3.95,1.11-2.53,3.73-6.88,8.8-7.56,3.84-.51,7.41.4,10.04,2.57,2.46,2.02,3.87,4.93,4.08,8.43.34,5.5.15,16.68.05,21.23-.04,1.82-.62,3.56-1.67,5.05-2.61,3.69-6.25,5.85-10.23,6.08-.23.03-.47.04-.71.04h0Z"/>
  <path class="cls-2" d="M249.85,64.27h-.06c-.83-.03-1.47-.73-1.44-1.55.53-14.19-7.51-20.22-7.85-20.47-.67-.49-.82-1.42-.33-2.09.48-.67,1.42-.82,2.09-.34.4.28,9.68,7.15,9.09,23.01-.03.81-.7,1.44-1.5,1.44h0Z"/>
  <path class="cls-2" d="M186.61,62.15c-.1,0-.2,0-.3-.03-.81-.16-1.34-.95-1.18-1.77,2.93-14.62,9.17-24.42,18.54-29.14,14.56-7.32,31.15.36,31.85.69.75.35,1.07,1.25.72,2s-1.25,1.07-2,.72c-.16-.07-16.01-7.38-29.24-.71-8.5,4.28-14.19,13.38-16.93,27.04-.14.71-.77,1.21-1.47,1.21h0Z"/>
  <path class="cls-2" d="M206.65,112.13c-.19,0-.38-.04-.57-.11-23.62-9.62-21-42.42-20.98-42.75.07-.83.81-1.43,1.63-1.36.83.07,1.44.8,1.36,1.62-.03.31-2.44,30.92,19.12,39.7.77.31,1.14,1.19.82,1.96-.24.58-.8.93-1.39.93h0Z"/>
  <path class="cls-2" d="M217.66,113.4c-.81,0-1.48-.65-1.5-1.47-.02-.83.64-1.51,1.47-1.53,2.55-.05,7.18-.56,8.75-1.69.67-.48,1.61-.33,2.09.34.49.67.33,1.61-.34,2.09-2.84,2.05-9.68,2.25-10.45,2.26h-.03,0Z"/>
  <path class="cls-2" d="M218.09,75.14c-.83,0-1.5-.67-1.5-1.5v-12.56c0-.83.67-1.5,1.5-1.5s1.5.67,1.5,1.5v12.56c0,.83-.67,1.5-1.5,1.5Z"/>
  <path class="cls-2" d="M218.36,84.6c-.83,0-1.5-.67-1.5-1.5v-4.66c0-.83.67-1.5,1.5-1.5s1.5.67,1.5,1.5v4.66c0,.83-.67,1.5-1.5,1.5Z"/>
  <path class="cls-1" d="M273.89,119.05h-16.32v-34.45h16.32c2.11,0,3.82,1.71,3.82,3.82v26.8c0,2.11-1.71,3.82-3.82,3.82h0Z"/>
  <path class="cls-3" d="M241.72,84.61h16.32v34.45h-16.32c-2.11,0-3.82-1.71-3.82-3.82v-26.8c0-2.11,1.71-3.82,3.82-3.82h0Z"/>
  <path class="cls-2" d="M271.78,86.01h-28.6v-7.83c0-6.47,5.27-11.74,11.74-11.74h5.13c6.47,0,11.74,5.27,11.74,11.74v7.83h0ZM246.18,83.01h22.6v-4.83c0-4.82-3.92-8.74-8.74-8.74h-5.13c-4.82,0-8.74,3.92-8.74,8.74v4.83h0Z"/>
  <path class="cls-2" d="M272.5,120.65h-30.62c-3.44,0-6.24-2.8-6.24-6.24v-24.78c0-3.44,2.8-6.24,6.24-6.24h30.62c3.44,0,6.24,2.8,6.24,6.24v24.78c0,3.44-2.8,6.24-6.24,6.24ZM241.89,86.39c-1.79,0-3.24,1.45-3.24,3.24v24.78c0,1.79,1.45,3.24,3.24,3.24h30.62c1.79,0,3.24-1.45,3.24-3.24v-24.78c0-1.79-1.45-3.24-3.24-3.24h-30.62Z"/>
  <path class="cls-2" d="M257.19,108.51c-3.58,0-6.49-2.91-6.49-6.49s2.91-6.49,6.49-6.49,6.49,2.91,6.49,6.49-2.91,6.49-6.49,6.49ZM257.19,98.53c-1.92,0-3.49,1.56-3.49,3.49s1.56,3.49,3.49,3.49,3.49-1.56,3.49-3.49-1.56-3.49-3.49-3.49Z"/>
</svg>