<?xml version="1.0" encoding="UTF-8"?>
<svg id="Layer_1" data-name="Layer 1" xmlns="http://www.w3.org/2000/svg" viewBox="0 0 192.5 159.5">
  <defs>
    <style>
      .cls-1 {
        fill: #fff;
      }
    </style>
  </defs>
  <path class="cls-1" d="M53,138.5c-.27,0-.55-.04-.82-.14-1.3-.45-2-1.88-1.54-3.18l5.27-15.2c.45-1.3,1.88-1.99,3.18-1.54,1.3.45,2,1.88,1.54,3.18l-5.27,15.2c-.36,1.03-1.33,1.68-2.36,1.68Z"/>
  <path class="cls-1" d="M121,154.89H45.84c-.58,0-1.15-.2-1.59-.57-6.39-5.29-3.1-13.91-.47-17.73.47-.68,1.24-1.08,2.06-1.08h75.16c1.38,0,2.5,1.12,2.5,2.5s-1.12,2.5-2.5,2.5H47.25c-1.12,2.04-3.02,6.47-.41,9.39h74.16c1.38,0,2.5,1.12,2.5,2.5s-1.12,2.5-2.5,2.5Z"/>
  <g>
    <path class="cls-1" d="M184,159.5h-50c-4.69,0-8.5-3.81-8.5-8.5V61c0-4.69,3.81-8.5,8.5-8.5h50c4.69,0,8.5,3.81,8.5,8.5v90c0,4.69-3.81,8.5-8.5,8.5ZM134,57.5c-1.93,0-3.5,1.57-3.5,3.5v90c0,1.93,1.57,3.5,3.5,3.5h50c1.93,0,3.5-1.57,3.5-3.5V61c0-1.93-1.57-3.5-3.5-3.5h-50Z"/>
    <path class="cls-1" d="M190,143.23h-60.79c-1.38,0-2.5-1.12-2.5-2.5s1.12-2.5,2.5-2.5h60.79c1.38,0,2.5,1.12,2.5,2.5s-1.12,2.5-2.5,2.5Z"/>
    <circle class="cls-1" cx="158" cy="148" r="2"/>
  </g>
  <path class="cls-1" d="M121,123H9.5c-5.24,0-9.5-4.26-9.5-9.5V9.5C0,4.26,4.26,0,9.5,0h156c5.24,0,9.5,4.26,9.5,9.5v39.5c0,1.93-1.57,3.5-3.5,3.5s-3.5-1.57-3.5-3.5V9.5c0-1.38-1.12-2.5-2.5-2.5H9.5c-1.38,0-2.5,1.12-2.5,2.5v104c0,1.38,1.12,2.5,2.5,2.5h111.5c1.93,0,3.5,1.57,3.5,3.5s-1.57,3.5-3.5,3.5Z"/>
  <g>
    <path class="cls-1" d="M61.72,46.15c-.83,0-1.5-.67-1.5-1.5v-7.84c0-6.14,3.73-8.02,5.69-8.15.03,0,.07,0,.1,0h10.27c.83,0,1.5.67,1.5,1.5s-.67,1.5-1.5,1.5h-10.2c-.39.05-2.87.58-2.87,5.16v7.84c0,.83-.67,1.5-1.5,1.5Z"/>
    <path class="cls-1" d="M118.13,46.32c-.83,0-1.5-.67-1.5-1.5v-10.46c-.06-.46-.59-2.98-4.99-2.98h-7.65c-.83,0-1.5-.67-1.5-1.5s.67-1.5,1.5-1.5h7.65c6.02,0,7.86,3.8,7.99,5.81v10.63c0,.83-.67,1.5-1.5,1.5Z"/>
    <path class="cls-1" d="M113.57,88.73h-10.27c-.83,0-1.5-.67-1.5-1.5s.67-1.5,1.5-1.5h10.2c.39-.05,2.87-.57,2.87-5.16v-7.84c0-.83.67-1.5,1.5-1.5s1.5.67,1.5,1.5v7.84c0,6.14-3.73,8.02-5.69,8.15-.03,0-.07,0-.1,0Z"/>
    <path class="cls-1" d="M75.61,89h-7.65c-6.02,0-7.86-3.8-7.99-5.81v-10.63c0-.83.67-1.5,1.5-1.5s1.5.67,1.5,1.5v10.46c.06.46.59,2.98,4.99,2.98h7.65c.83,0,1.5.67,1.5,1.5s-.67,1.5-1.5,1.5Z"/>
    <path class="cls-1" d="M76.97,57.41c-.83,0-1.5-.67-1.5-1.5v-7.1c0-.83.67-1.5,1.5-1.5s1.5.67,1.5,1.5v7.1c0,.83-.67,1.5-1.5,1.5Z"/>
    <path class="cls-1" d="M103.04,57.17c-.83,0-1.5-.67-1.5-1.5v-7.1c0-.83.67-1.5,1.5-1.5s1.5.67,1.5,1.5v7.1c0,.83-.67,1.5-1.5,1.5Z"/>
    <path class="cls-1" d="M88.78,66.18c-.68,0-1.43-.08-2.26-.23-.81-.15-1.35-.94-1.2-1.75.15-.81.93-1.35,1.75-1.2,2.29.43,2.9-.02,2.96-.08.02-.02.05-.04.05-.11-.04-.14-.01-.03-.01-.17v-15.29c0-.83.67-1.5,1.5-1.5s1.5.67,1.5,1.5v15.2c.07.71-.13,1.73-.92,2.51-.77.76-1.88,1.13-3.36,1.13Z"/>
    <path class="cls-1" d="M89.9,78.05c-.07.02-.16,0-.23-.02-5.66-.88-10.4-5.43-10.6-5.63-.59-.58-.61-1.52-.03-2.12.58-.59,1.53-.61,2.12-.03.04.04,4.2,4.02,8.86,4.8,3.12-.07,8.07-3.1,9.32-4.66.52-.65,1.46-.75,2.11-.23.65.52.75,1.46.23,2.11-1.83,2.27-7.71,5.78-11.77,5.78Z"/>
  </g>
  <g>
    <path class="cls-1" d="M174.69,76.89c-.24,0-.49-.06-.72-.18-15.36-8.39-29.66-.11-29.8-.03-.71.42-1.63.19-2.06-.52s-.19-1.63.52-2.05c.64-.38,15.87-9.27,32.78-.03.73.4,1,1.31.6,2.04-.27.5-.79.78-1.32.78Z"/>
    <path class="cls-1" d="M181.94,93.21c-.39,0-.78-.15-1.07-.45-7.37-7.49-15.04-11.09-22.79-10.75-12.01.55-20.34,10.55-20.42,10.65-.52.64-1.47.74-2.11.21-.64-.52-.74-1.47-.21-2.11.37-.45,9.22-11.12,22.58-11.74,8.65-.41,17.09,3.51,25.09,11.64.58.59.57,1.54-.02,2.12-.29.29-.67.43-1.05.43Z"/>
    <path class="cls-1" d="M166.46,127.94c-.21,0-.43-.04-.63-.14-14.31-6.69-15.51-16.29-14-23.17.62-3.29,2.85-5.47,5.83-5.64,3.41-.19,7.99,2.41,9.92,8.6,1.18,4.22,5.15,5.74,8.28,5.04.92-.2,3.86-1.14,3.28-4.58,0-.03-.01-.07-.01-.1-.68-7.04-3.21-12.25-7.54-15.47-6.5-4.84-14.78-3.75-17.32-3.27-6.09,2.02-10.35,5.41-12.65,10.06-3.99,8.07-.81,17.42-.77,17.51.27.78-.14,1.64-.92,1.91-.78.27-1.63-.14-1.91-.92-.15-.43-3.63-10.59.9-19.81,2.68-5.44,7.55-9.35,14.5-11.63.06-.02.12-.04.18-.05,2.73-.54,12.21-1.85,19.78,3.79,5.02,3.74,7.96,9.64,8.73,17.54.62,3.87-1.62,7.06-5.6,7.95-4.55,1.01-10.2-1.37-11.81-7.11-1.37-4.41-4.51-6.57-6.87-6.45-1.6.09-2.69,1.25-3.06,3.25-1.86,8.5,2.29,15.16,12.34,19.86.75.35,1.07,1.24.72,1.99-.25.54-.79.86-1.36.86Z"/>
    <path class="cls-1" d="M154,128c-.4,0-.79-.16-1.09-.47-8.87-9.36-10.73-21.97-4.43-29.98.03-.04.06-.07.09-.11,3.97-4.18,8.08-5.95,12.2-5.26,8.1,1.36,12.97,11.86,13.18,12.31.34.75.01,1.64-.74,1.99-.75.34-1.64.01-1.99-.74-.04-.09-4.42-9.51-10.95-10.6-3.06-.51-6.25.94-9.47,4.32-5.32,6.83-3.52,17.75,4.29,26,.57.6.54,1.55-.06,2.12-.29.27-.66.41-1.03.41Z"/>
    <path class="cls-1" d="M174.08,122.06c-5.34,0-9.56-1.42-12.58-4.22-4.39-4.08-4.5-9.56-4.51-9.8,0-.83.65-1.51,1.48-1.52.78,0,1.5.65,1.52,1.48,0,.05.13,4.49,3.58,7.67,2.76,2.55,6.91,3.67,12.35,3.33.82-.05,1.54.58,1.59,1.4.05.83-.58,1.54-1.4,1.59-.69.04-1.36.06-2.02.06Z"/>
  </g>
</svg>