<?xml version="1.0" encoding="UTF-8"?>
<svg id="Layer_1" data-name="Layer 1" xmlns="http://www.w3.org/2000/svg" viewBox="0 0 99.73 102.53">
  <defs>
    <style>
      .cls-1 {
        fill: #fff;
      }
    </style>
  </defs>
  <path class="cls-1" d="M7.87,83.99c-2.17,0-4.02-.77-5.56-2.31s-2.31-3.39-2.31-5.56v-4.46c0-3.32.83-6.17,2.49-8.53,1.66-2.36,3.81-4.16,6.43-5.38,5.86-2.62,11.48-4.59,16.86-5.91s10.78-1.97,16.21-1.97c1.84,0,3.67.07,5.51.2,1.84.13,3.67.37,5.51.72.7.18,1.22.49,1.57.94s.52,1.01.52,1.68c0,4.37,1.01,8.46,3.02,12.27,2.01,3.81,4.81,6.93,8.4,9.38.53.35.95.78,1.25,1.3s.46,1.09.46,1.72v1.97c0,1.12-.38,2.05-1.13,2.8s-1.69,1.13-2.81,1.13H7.86h0ZM41.99,39.38c-5.51,0-10.17-1.9-13.98-5.71s-5.71-8.46-5.71-13.98,1.9-10.17,5.71-13.98S36.47,0,41.99,0s10.17,1.9,13.98,5.71,5.71,8.46,5.71,13.98-1.9,10.17-5.71,13.98c-3.81,3.81-8.46,5.71-13.98,5.71ZM81.36,56.04c1.49,0,2.73-.5,3.74-1.51s1.51-2.25,1.51-3.74-.5-2.73-1.51-3.74-2.25-1.51-3.74-1.51-2.73.5-3.74,1.51-1.51,2.25-1.51,3.74.5,2.73,1.51,3.74,2.25,1.51,3.74,1.51ZM82.54,101.84l-5.87-5.87c-.2-.2-.38-.64-.56-1.34v-23.6c-3.85-1.15-7-3.32-9.45-6.51-2.45-3.19-3.67-6.89-3.67-11.09,0-5.07,1.79-9.4,5.38-12.99s7.92-5.38,12.99-5.38,9.4,1.79,12.99,5.38,5.38,7.92,5.38,12.99c0,3.94-1.12,7.44-3.35,10.5-2.23,3.06-5.05,5.25-8.46,6.56l5.12,5.12c.44.41.66.88.66,1.42s-.22,1.03-.66,1.47l-4.99,4.99c-.44.41-.66.88-.66,1.42s.22,1.03.66,1.47l4.99,4.99c.44.41.66.88.66,1.42s-.22,1.03-.66,1.47l-7.61,7.61c-.41.44-.88.66-1.42.66s-1.03-.22-1.47-.66v-.03Z"/>
</svg>