<?xml version="1.0" encoding="UTF-8"?>
<svg id="Layer_1" data-name="Layer 1" xmlns="http://www.w3.org/2000/svg" viewBox="0 0 110.11 104.63">
  <defs>
    <style>
      .cls-1 {
        fill: #fff;
      }
    </style>
  </defs>
  <g>
    <path class="cls-1" d="M53.76,31.17c4.37,0,8.05-1.5,11.07-4.52s4.52-6.7,4.52-11.07-1.5-8.05-4.52-11.07S58.13,0,53.76,0s-8.05,1.5-11.07,4.52c-3.02,3.02-4.52,6.7-4.52,11.07s1.5,8.05,4.52,11.07c3.02,3.02,6.7,4.52,11.07,4.52Z"/>
    <path class="cls-1" d="M87.9,49.99c-1.14-1.87-2.62-3.29-4.42-4.26-4.03-2.07-7.9-3.63-11.6-4.68-3.7-1.04-7.42-1.56-11.15-1.56-1.01,0-5.65-.02-6.97-.02-4.3,0-8.57.51-12.83,1.56s-8.71,2.6-13.35,4.68c-2.07.97-3.78,2.39-5.09,4.26-1.31,1.87-1.97,4.12-1.97,6.75v3.53c0,1.72.61,3.18,1.83,4.4,1.22,1.22,2.68,1.83,4.4,1.83h0,18.41c.08,0,.15.02.23.02h38.82c1.5,0,2.76-.6,3.82-1.82,1.06-1.22,1.59-2.68,1.59-4.4v-3.53c0-2.63-.57-4.88-1.71-6.75h0Z"/>
  </g>
  <g>
    <path class="cls-1" d="M100.58,104.63H9.52c-5.25,0-9.52-4.27-9.52-9.53v-14.99c0-5.25,4.27-9.52,9.52-9.52h91.06c5.25,0,9.53,4.27,9.53,9.52v14.99c0,5.25-4.27,9.53-9.53,9.53ZM9.52,73.59c-3.6,0-6.52,2.93-6.52,6.52v14.99c0,3.6,2.93,6.53,6.52,6.53h91.06c3.6,0,6.53-2.93,6.53-6.53v-14.99c0-3.6-2.93-6.52-6.53-6.52H9.52Z"/>
    <g>
      <g>
        <path class="cls-1" d="M17.41,99c-.83,0-1.5-.67-1.5-1.5v-18.07c0-.83.67-1.5,1.5-1.5s1.5.67,1.5,1.5v18.07c0,.83-.67,1.5-1.5,1.5Z"/>
        <path class="cls-1" d="M9.84,94.9c-.49,0-.97-.24-1.26-.68-.45-.69-.26-1.62.44-2.08l15.13-9.88c.69-.45,1.62-.26,2.08.44.46.7.26,1.62-.44,2.08l-15.13,9.88c-.25.17-.54.24-.82.24Z"/>
        <path class="cls-1" d="M24.9,95.02c-.29,0-.58-.08-.84-.26l-14.98-10.11c-.69-.46-.87-1.4-.4-2.08.46-.69,1.4-.87,2.08-.4l14.98,10.11c.69.46.87,1.4.4,2.08-.29.43-.76.66-1.24.66Z"/>
      </g>
      <g>
        <path class="cls-1" d="M67.6,99c-.83,0-1.5-.67-1.5-1.5v-18.07c0-.83.67-1.5,1.5-1.5s1.5.67,1.5,1.5v18.07c0,.83-.67,1.5-1.5,1.5Z"/>
        <path class="cls-1" d="M60.03,94.9c-.49,0-.97-.24-1.26-.68-.45-.69-.26-1.62.44-2.08l15.13-9.88c.69-.45,1.62-.26,2.08.44.46.7.26,1.62-.44,2.08l-15.13,9.88c-.25.17-.54.24-.82.24Z"/>
        <path class="cls-1" d="M75.09,95.02c-.29,0-.58-.08-.84-.26l-14.98-10.11c-.69-.46-.87-1.4-.4-2.08.46-.69,1.4-.87,2.08-.4l14.98,10.11c.69.46.87,1.4.4,2.08-.29.43-.76.66-1.24.66Z"/>
      </g>
      <g>
        <path class="cls-1" d="M42.51,99c-.83,0-1.5-.67-1.5-1.5v-18.07c0-.83.67-1.5,1.5-1.5s1.5.67,1.5,1.5v18.07c0,.83-.67,1.5-1.5,1.5Z"/>
        <path class="cls-1" d="M34.94,94.9c-.49,0-.97-.24-1.26-.68-.45-.69-.26-1.62.44-2.08l15.13-9.88c.69-.45,1.62-.26,2.08.44.46.7.26,1.62-.44,2.08l-15.13,9.88c-.25.17-.54.24-.82.24Z"/>
        <path class="cls-1" d="M50,95.02c-.29,0-.58-.08-.84-.26l-14.98-10.11c-.69-.46-.87-1.4-.4-2.08.46-.69,1.4-.87,2.08-.4l14.98,10.11c.69.46.87,1.4.4,2.08-.29.43-.76.66-1.24.66Z"/>
      </g>
      <g>
        <path class="cls-1" d="M92.7,99c-.83,0-1.5-.67-1.5-1.5v-18.07c0-.83.67-1.5,1.5-1.5s1.5.67,1.5,1.5v18.07c0,.83-.67,1.5-1.5,1.5Z"/>
        <path class="cls-1" d="M85.13,94.9c-.49,0-.97-.24-1.26-.68-.45-.69-.26-1.62.44-2.08l15.13-9.88c.69-.45,1.62-.26,2.08.44.46.7.26,1.62-.44,2.08l-15.13,9.88c-.25.17-.54.24-.82.24Z"/>
        <path class="cls-1" d="M100.19,95.02c-.29,0-.58-.08-.84-.26l-14.98-10.11c-.69-.46-.87-1.4-.4-2.08.46-.69,1.4-.87,2.08-.4l14.98,10.11c.69.46.87,1.4.4,2.08-.29.43-.76.66-1.24.66h0Z"/>
      </g>
    </g>
  </g>
</svg>