<?xml version="1.0" encoding="UTF-8"?>
<svg id="Layer_1" data-name="Layer 1" xmlns="http://www.w3.org/2000/svg" viewBox="0 0 200.5 167.5">
  <defs>
    <style>
      .cls-1 {
        fill: #5e5e5e;
      }
    </style>
  </defs>
  <path class="cls-1" d="M54.5,142.5c-.54,0-1.1-.09-1.64-.28-2.61-.9-3.99-3.75-3.09-6.36l5.27-15.2c.9-2.61,3.75-3.99,6.36-3.09s3.99,3.75,3.09,6.36l-5.27,15.2c-.72,2.07-2.65,3.36-4.72,3.36h0Z"/>
  <path class="cls-1" d="M122.5,158.89H47.34c-1.16,0-2.29-.41-3.19-1.15-7.79-6.44-4.01-16.6-.93-21.08.93-1.36,2.47-2.16,4.12-2.16h75.16c2.76,0,5,2.24,5,5s-2.24,5-5,5H50.33c-.57,1.35-1.06,3.07-.6,4.39h72.77c2.76,0,5,2.24,5,5s-2.24,5-5,5Z"/>
  <g>
    <path class="cls-1" d="M190.5,167.5h-50c-5.51,0-10-4.49-10-10v-90c0-5.51,4.49-10,10-10h50c5.51,0,10,4.49,10,10v90c0,5.51-4.49,10-10,10ZM140.5,65.5c-1.1,0-2,.9-2,2v90c0,1.1.9,2,2,2h50c1.1,0,2-.9,2-2v-90c0-1.1-.9-2-2-2h-50Z"/>
    <path class="cls-1" d="M196.5,149.73h-60.79c-1.38,0-2.5-1.12-2.5-2.5s1.12-2.5,2.5-2.5h60.79c1.38,0,2.5,1.12,2.5,2.5s-1.12,2.5-2.5,2.5Z"/>
    <circle class="cls-1" cx="164.5" cy="154.5" r="2"/>
  </g>
  <path class="cls-1" d="M122.5,126H11c-6.07,0-11-4.93-11-11V11C0,4.93,4.93,0,11,0h156c6.07,0,11,4.93,11,11v39.5c0,2.76-2.24,5-5,5s-5-2.24-5-5V11c0-.55-.45-1-1-1H11c-.55,0-1,.45-1,1v104c0,.55.45,1,1,1h111.5c2.76,0,5,2.24,5,5s-2.24,5-5,5Z"/>
  <g>
    <path class="cls-1" d="M56.64,47.84c-1.66,0-3-1.34-3-3v-8.81c0-7.88,4.99-10.3,7.63-10.48h11.75c1.66,0,3,1.34,3,3s-1.34,3-3,3h-11.32c-.5.11-2.05.77-2.05,4.48v8.81c0,1.66-1.34,3-3,3h-.01Z"/>
    <path class="cls-1" d="M120.04,48.03c-1.66,0-3-1.34-3-3v-11.68c-.09-.49-.68-2.11-4.3-2.11h-8.6c-1.66,0-3-1.34-3-3s1.34-3,3-3h8.6c7.74,0,10.12,5.07,10.29,7.76v12.03c0,1.66-1.34,3-3,3h.01ZM117.04,33.38h0Z"/>
    <path class="cls-1" d="M114.92,95.7h-11.55c-1.66,0-3-1.34-3-3s1.34-3,3-3h11.32c.5-.12,2.05-.77,2.05-4.48v-8.81c0-1.66,1.34-3,3-3s3,1.34,3,3v8.81c0,7.88-4.99,10.3-7.63,10.48h-.2,0Z"/>
    <path class="cls-1" d="M72.25,96h-8.6c-7.74,0-10.12-5.08-10.29-7.76v-12.03c0-1.66,1.34-3,3-3s3,1.34,3,3v11.68c.09.49.68,2.11,4.3,2.11h8.6c1.66,0,3,1.34,3,3s-1.34,3-3,3h-.01ZM59.34,87.85h0Z"/>
    <path class="cls-1" d="M73.77,60.48c-1.66,0-3-1.34-3-3v-7.98c0-1.66,1.34-3,3-3s3,1.34,3,3v7.98c0,1.66-1.34,3-3,3Z"/>
    <path class="cls-1" d="M103.08,60.23c-1.66,0-3-1.34-3-3v-7.98c0-1.66,1.34-3,3-3s3,1.34,3,3v7.98c0,1.66-1.34,3-3,3Z"/>
    <path class="cls-1" d="M87.05,70.35c-.85,0-1.77-.1-2.79-.28-1.63-.3-2.7-1.87-2.4-3.5s1.87-2.7,3.5-2.4c.86.16,1.44.19,1.82.18v-16.49c0-1.66,1.34-3,3-3s3,1.34,3,3v17.03c.1,1.13-.23,2.64-1.43,3.82-1.12,1.1-2.67,1.65-4.7,1.65h0Z"/>
    <path class="cls-1" d="M88.3,83.69c-.13.02-.31-.01-.46-.04-6.77-1.05-12.4-6.45-12.63-6.68-1.19-1.15-1.22-3.05-.06-4.24,1.15-1.19,3.05-1.22,4.24-.07.09.09,4.4,4.17,9.13,5.02,3.06-.14,8.16-3.25,9.36-4.74,1.04-1.29,2.93-1.5,4.22-.46s1.5,2.93.46,4.22c-2.26,2.82-9.24,6.99-14.25,6.99h-.01Z"/>
  </g>
  <g>
    <path class="cls-1" d="M180.3,85.76c-.32,0-.65-.08-.96-.25-13.88-7.58-26.42-.35-26.94-.04-.95.56-2.18.25-2.74-.7-.56-.95-.26-2.17.69-2.74.6-.36,14.98-8.74,30.91-.04.97.53,1.33,1.74.8,2.71-.36.67-1.05,1.04-1.76,1.04v.02Z"/>
    <path class="cls-1" d="M187,100.84c-.52,0-1.03-.2-1.43-.6-6.68-6.79-13.59-10.06-20.59-9.75-10.82.49-18.36,9.53-18.44,9.62-.7.85-1.96.98-2.81.28-.85-.7-.98-1.96-.28-2.81.35-.43,8.7-10.49,21.31-11.08,8.18-.4,16.14,3.3,23.66,10.94.77.79.76,2.05-.02,2.83-.39.38-.9.57-1.4.57h0Z"/>
    <path class="cls-1" d="M172.69,132.95c-.28,0-.57-.06-.85-.19-6.14-2.87-16.03-9.56-13.28-22.11.62-3.31,2.9-5.52,5.95-5.7,3.39-.18,7.91,2.34,9.79,8.38,1,3.55,4.32,4.82,6.93,4.24,1.13-.25,2.98-1.05,2.56-3.53,0-.05,0-.09-.02-.14-.61-6.33-2.87-11-6.72-13.87-4.63-3.45-11.01-3.77-15.48-2.92-5.45,1.82-9.25,4.83-11.29,8.96-3.57,7.22-.72,15.64-.69,15.72.36,1.04-.19,2.18-1.23,2.55-1.04.36-2.18-.18-2.55-1.22-.14-.41-3.44-10.04.86-18.78,2.55-5.18,7.18-8.9,13.76-11.06.08-.03.16-.05.24-.06,2.58-.51,11.57-1.75,18.77,3.61,4.78,3.56,7.58,9.16,8.31,16.62.62,3.91-1.64,7.13-5.65,8.02-4.47,1-10.05-1.35-11.64-7.01-1.15-3.71-3.79-5.62-5.72-5.52-1.5.09-2.06,1.41-2.26,2.5-1.65,7.55,2.07,13.48,11.06,17.69,1,.47,1.43,1.66.96,2.66-.34.73-1.06,1.15-1.81,1.15h0Z"/>
    <path class="cls-1" d="M161.17,133c-.53,0-1.06-.21-1.45-.62-8.41-8.88-10.15-20.87-4.13-28.51.04-.05.08-.1.12-.14,3.82-4.02,7.8-5.72,11.82-5.05,7.81,1.31,12.44,11.3,12.64,11.73.46,1,0,2.19-.99,2.65-1.01.46-2.19.01-2.65-.99h0c-.04-.08-3.96-8.49-9.67-9.44-2.61-.43-5.36.84-8.19,3.79-4.71,6.07-3.06,15.82,3.95,23.21.76.8.73,2.07-.08,2.83-.39.37-.88.55-1.38.55h.01Z"/>
    <path class="cls-1" d="M179.74,127.51c-5.09,0-9.14-1.36-12.05-4.06-4.25-3.95-4.36-9.27-4.36-9.5,0-1.1.87-2.01,1.98-2.02,1.09.03,2,.87,2.02,1.97,0,.07.14,3.92,3.12,6.66,2.43,2.23,6.11,3.2,10.94,2.91,1.09-.07,2.05.77,2.12,1.87.07,1.1-.77,2.05-1.87,2.12-.65.04-1.29.06-1.91.06h.01Z"/>
  </g>
</svg>