<?xml version="1.0" encoding="UTF-8"?>
<svg id="Layer_1" data-name="Layer 1" xmlns="http://www.w3.org/2000/svg" viewBox="0 0 319 312">
  <defs>
    <style>
      .cls-1 {
        fill: #fff;
      }
    </style>
  </defs>
  <path class="cls-1" d="M7.5,115c-4.14,0-7.5-3.36-7.5-7.5V7.5C0,3.36,3.36,0,7.5,0h98c4.14,0,7.5,3.36,7.5,7.5s-3.36,7.5-7.5,7.5H15v92.5c0,4.14-3.36,7.5-7.5,7.5Z"/>
  <path class="cls-1" d="M311.5,113c-4.14,0-7.5-3.36-7.5-7.5V15h-92.5c-4.14,0-7.5-3.36-7.5-7.5s3.36-7.5,7.5-7.5h100c4.14,0,7.5,3.36,7.5,7.5v98c0,4.14-3.36,7.5-7.5,7.5Z"/>
  <g>
    <path class="cls-1" d="M311.5,312h-98c-4.14,0-7.5-3.36-7.5-7.5s3.36-7.5,7.5-7.5h90.5v-92.5c0-4.14,3.36-7.5,7.5-7.5s7.5,3.36,7.5,7.5v100c0,4.14-3.36,7.5-7.5,7.5Z"/>
    <path class="cls-1" d="M107.5,312H7.5c-4.14,0-7.5-3.36-7.5-7.5v-98c0-4.14,3.36-7.5,7.5-7.5s7.5,3.36,7.5,7.5v90.5h92.5c4.14,0,7.5,3.36,7.5,7.5s-3.36,7.5-7.5,7.5Z"/>
  </g>
  <g>
    <path class="cls-1" d="M259.17,142.25h-78c-4.14,0-7.5-3.36-7.5-7.5V56.75c0-4.14,3.36-7.5,7.5-7.5h78c4.14,0,7.5,3.36,7.5,7.5v78c0,4.14-3.36,7.5-7.5,7.5ZM188.67,127.25h63v-63h-63v63Z"/>
    <rect class="cls-1" x="206.17" y="81.75" width="28" height="28"/>
  </g>
  <g>
    <path class="cls-1" d="M138.83,141.82H60.83c-4.14,0-7.5-3.36-7.5-7.5V56.32c0-4.14,3.36-7.5,7.5-7.5h78c4.14,0,7.5,3.36,7.5,7.5v78c0,4.14-3.36,7.5-7.5,7.5ZM68.33,126.82h63v-63h-63v63Z"/>
    <rect class="cls-1" x="85.83" y="81.32" width="28" height="28"/>
  </g>
  <g>
    <path class="cls-1" d="M138.56,262.82H60.56c-4.14,0-7.5-3.36-7.5-7.5v-78c0-4.14,3.36-7.5,7.5-7.5h78c4.14,0,7.5,3.36,7.5,7.5v78c0,4.14-3.36,7.5-7.5,7.5ZM68.06,247.82h63v-63h-63v63Z"/>
    <rect class="cls-1" x="85.56" y="202.32" width="28" height="28"/>
  </g>
  <g>
    <g>
      <rect class="cls-1" x="176" y="236" width="27" height="27"/>
      <rect class="cls-1" x="176" y="173" width="27" height="27"/>
    </g>
    <g>
      <rect class="cls-1" x="238" y="236" width="27" height="27"/>
      <rect class="cls-1" x="238" y="173" width="27" height="27"/>
    </g>
    <rect class="cls-1" x="207" y="206" width="27" height="27"/>
  </g>
</svg>