<?xml version="1.0" encoding="UTF-8"?>
<svg id="Layer_1" data-name="Layer 1" xmlns="http://www.w3.org/2000/svg" viewBox="0 0 275.5 344.61">
  <defs>
    <style>
      .cls-1 {
        fill: #57606a;
      }
    </style>
  </defs>
  <path class="cls-1" d="M137.75,170.71c-9.67,0-17.5,7.84-17.5,17.5,0,7.17,4.32,13.33,10.5,16.03v23.82c0,2.57,2.08,4.65,4.65,4.65h4.7c2.57,0,4.65-2.08,4.65-4.65v-23.82c6.18-2.7,10.5-8.86,10.5-16.03,0-9.66-7.83-17.5-17.5-17.5Z"/>
  <path class="cls-1" d="M143.56,84.83h-7.6c-12.92,0-22.38,6.61-22.38,19.53v40.85h52v-40.85c0-12.92-9.1-19.53-22.02-19.53Z"/>
  <path class="cls-1" d="M268.84,40.69c-21.32,1.39-88.72,2.18-126.92-38.98-2.09-2.25-5.64-2.28-7.78-.08-11.22,11.55-48.17,41.52-127.18,37.97-3.8-.17-6.97,2.87-6.97,6.68v163.17s1.47,88.62,134.44,134.52c2.36.82,4.92.85,7.32.15,117.58-34.01,133.74-134.41,133.74-134.41V46.92c0-3.61-3.06-6.47-6.66-6.23ZM205.34,245.02s-66.79,51.68-132.79-.32v-98.52l10-.48h14.9v-39.3c0-19.72,15.98-35.7,35.7-35.7h11.6c19.72,0,35.7,15.98,35.7,35.7v39.3h24.9v99.32Z"/>
</svg>