<?xml version="1.0" encoding="UTF-8"?>
<svg id="Layer_1" data-name="Layer 1" xmlns="http://www.w3.org/2000/svg" viewBox="0 0 140.62 140.27">
  <defs>
    <style>
      .cls-1 {
        fill: #fff;
      }
    </style>
  </defs>
  <path class="cls-1" d="M56.79,69.84v7.83c-5.94-3.18-13.5-2.27-18.51,2.74-6.13,6.13-6.13,16.08,0,22.21,6.13,6.13,16.08,6.13,22.21,0,4.22-4.22,5.53-10.24,3.95-15.58l17.93-17.93v-9.67h-16.77v10.4h-8.82ZM47.01,93.38c1.9,1.9,1.9,4.98,0,6.87s-4.98,1.9-6.87,0-1.9-4.98,0-6.87,4.98-1.9,6.87,0Z"/>
  <path class="cls-1" d="M105.79,75.19c-1.28,0-2.56-.49-3.54-1.46-1.95-1.95-1.95-5.12,0-7.07l26.3-26.3-28.28-28.28-25.46,25.46c-1.95,1.95-5.12,1.95-7.07,0-1.95-1.95-1.95-5.12,0-7.07L96.73,1.46c1.95-1.95,5.12-1.95,7.07,0l35.36,35.36c1.95,1.95,1.95,5.12,0,7.07l-29.83,29.83c-.98.98-2.26,1.46-3.54,1.46Z"/>
  <rect class="cls-1" x="92.69" y="24.43" width="10" height="7" transform="translate(8.87 77.26) rotate(-45)"/>
  <rect class="cls-1" x="106.9" y="38.58" width="10" height="7" transform="translate(.94 86.58) rotate(-42.46)"/>
  <path class="cls-1" d="M50.19,140.27c-4.16,0-8.31-1.58-11.48-4.75L4.86,101.67c-3.14-3.14-4.86-7.3-4.86-11.74s1.73-8.6,4.86-11.74L58.92,24.13c1.95-1.95,5.12-1.95,7.07,0l50,50c1.95,1.95,1.95,5.12,0,7.07l-54.32,54.32c-3.16,3.16-7.32,4.75-11.48,4.75ZM62.46,34.74L11.93,85.26c-1.25,1.25-1.93,2.91-1.93,4.67s.69,3.42,1.93,4.67l33.86,33.86c2.43,2.43,6.38,2.43,8.81,0l50.79-50.79-42.93-42.93Z"/>
</svg>