<?xml version="1.0" encoding="UTF-8"?>
<svg id="Layer_1" data-name="Layer 1" xmlns="http://www.w3.org/2000/svg" viewBox="0 0 135.62 135.27">
  <defs>
    <style>
      .cls-1 {
        fill: #fff;
      }
    </style>
  </defs>
  <path class="cls-1" d="M54.28,67.34v7.83c-5.94-3.18-13.5-2.27-18.51,2.74-6.13,6.13-6.13,16.08,0,22.21,6.13,6.13,16.08,6.13,22.21,0,4.22-4.22,5.53-10.24,3.95-15.58l17.93-17.93v-9.67h-16.77v10.4h-8.82ZM44.82,90.56c1.9,1.9,1.83,5.05-.16,7.03s-5.13,2.06-7.03.16-1.83-5.05.16-7.03,5.13-2.06,7.03-.16Z"/>
  <path class="cls-1" d="M103.28,70.19c-.64,0-1.28-.24-1.77-.73-.98-.98-.98-2.56,0-3.54l28.06-28.06-31.82-31.82-27.23,27.23c-.98.98-2.56.98-3.54,0-.98-.98-.98-2.56,0-3.54L95.99.73c.98-.98,2.56-.98,3.54,0l35.36,35.36c.98.98.98,2.56,0,3.54l-29.83,29.83c-.49.49-1.13.73-1.77.73Z"/>
  <rect class="cls-1" x="90.07" y="21.98" width="10.3" height="7.39" transform="translate(9.74 74.85) rotate(-45)"/>
  <rect class="cls-1" x="104.39" y="36.08" width="10" height="7" transform="translate(1.97 84.23) rotate(-42.46)"/>
  <path class="cls-1" d="M47.69,135.27c-3.52,0-7.03-1.34-9.71-4.01L4.12,97.4c-5.5-5.5-5.5-14.44,0-19.94L58.18,23.4c.98-.98,2.56-.98,3.54,0l50,50c.98.98.98,2.56,0,3.54l-54.32,54.32c-2.68,2.68-6.19,4.01-9.71,4.01ZM59.95,28.7L7.66,80.99c-1.72,1.72-2.67,4.01-2.67,6.44s.95,4.72,2.67,6.44l33.86,33.86c1.65,1.65,3.84,2.56,6.17,2.56s4.52-.91,6.17-2.56l52.55-52.55L59.95,28.7Z"/>
</svg>