<svg width="75" height="95" viewBox="0 0 75 95" fill="none" xmlns="http://www.w3.org/2000/svg">
<g clip-path="url(#clip0_601_19)">
<mask id="mask0_601_19" style="mask-type:alpha" maskUnits="userSpaceOnUse" x="1" y="78" width="28" height="17">
<path fill-rule="evenodd" clip-rule="evenodd" d="M1.625 78.07H28.26V94.995H1.625V78.07Z" fill="white"/>
</mask>
<g mask="url(#mask0_601_19)">
<path fill-rule="evenodd" clip-rule="evenodd" d="M3.6975 82.6925C3.6975 83.1725 3.7925 83.5675 3.985 83.8825C4.1775 84.195 4.435 84.455 4.76 84.6575C5.085 84.86 5.46 85.0275 5.8875 85.1575C6.3175 85.2875 6.7625 85.4075 7.2275 85.5225C7.8525 85.6775 8.4675 85.8475 9.0725 86.035C9.6775 86.2225 10.215 86.48 10.6875 86.81C11.1625 87.14 11.5425 87.5675 11.8375 88.0975C12.1275 88.625 12.275 89.305 12.275 90.1325C12.275 90.98 12.115 91.7075 11.8 92.3225C11.4918 92.9266 11.0403 93.4459 10.485 93.835C9.88433 94.248 9.21205 94.5455 8.5025 94.7125C7.74 94.905 6.9025 95 5.9975 95C5.14478 94.9886 4.29542 94.8906 3.4625 94.7075C3.09676 94.6274 2.73612 94.5256 2.3825 94.4025C2.11895 94.3146 1.86512 94.1998 1.625 94.06V92.2425C1.9125 92.39 2.2375 92.525 2.6 92.6475C2.9625 92.7675 3.335 92.8725 3.72 92.9575C4.105 93.0425 4.495 93.1075 4.89 93.1575C5.79404 93.2776 6.71146 93.2523 7.6075 93.0825C8.115 92.9875 8.5625 92.825 8.95 92.5975C9.335 92.37 9.64 92.06 9.865 91.665C10.09 91.27 10.2025 90.775 10.2025 90.1825C10.2191 89.7604 10.1169 89.342 9.9075 88.975C9.70829 88.6552 9.43794 88.3857 9.1175 88.1875C8.76259 87.9691 8.38002 87.7993 7.98 87.6825C7.5311 87.5471 7.07841 87.4246 6.6225 87.315C5.9975 87.17 5.385 87.005 4.7875 86.8225C4.21706 86.6529 3.67645 86.3957 3.185 86.06C2.71494 85.7345 2.32719 85.304 2.0525 84.8025C1.7675 84.2925 1.625 83.6375 1.625 82.84C1.625 82.01 1.775 81.2975 2.075 80.7C2.375 80.1 2.7775 79.6075 3.29 79.2175C3.81855 78.8184 4.41847 78.524 5.0575 78.35C5.725 78.165 6.435 78.07 7.19 78.07C8.71833 78.0582 10.2323 78.3656 11.635 78.9725V80.815C10.9659 80.5297 10.2754 80.2973 9.57 80.12C8.82286 79.9371 8.05671 79.8431 7.2875 79.84C6.675 79.84 6.145 79.905 5.695 80.04C5.245 80.175 4.8725 80.365 4.575 80.615C4.28315 80.8556 4.05553 81.1649 3.9125 81.515C3.76465 81.8897 3.6916 82.2898 3.6975 82.6925ZM21.9725 93.2325C22.5575 93.2325 23.0775 93.1625 23.5325 93.025C23.985 92.885 24.3825 92.69 24.72 92.4375C25.0575 92.1875 25.3375 91.885 25.5625 91.53C25.7875 91.175 25.96 90.785 26.08 90.355C26.16 90.085 26.2175 89.785 26.25 89.455C26.28 89.1275 26.2975 88.8075 26.2975 88.5V78.375H28.26V88.45C28.26 88.8325 28.24 89.23 28.2 89.645C28.16 90.06 28.0975 90.445 28.0075 90.805C27.8575 91.405 27.6275 91.9625 27.3225 92.475C27.0134 92.9911 26.6077 93.4427 26.1275 93.805C25.6375 94.18 25.0525 94.4725 24.3625 94.6825C23.5785 94.9071 22.7654 95.0141 21.95 95C21.1651 95.013 20.3823 94.9145 19.625 94.7075C19.0111 94.5368 18.431 94.262 17.91 93.895C17.4443 93.5628 17.0456 93.1455 16.735 92.665C16.426 92.1825 16.1862 91.6591 16.0225 91.11C15.8985 90.6834 15.8123 90.2467 15.765 89.805C15.7129 89.3552 15.6862 88.9028 15.685 88.45V78.375H17.65V88.5C17.65 88.865 17.675 89.2425 17.7275 89.625C17.78 90.0125 17.8625 90.365 17.975 90.6825C18.255 91.4725 18.725 92.0925 19.3775 92.5475C20.0325 93.005 20.8975 93.2325 21.975 93.2325H21.9725Z" fill="white"/>
</g>
<path fill-rule="evenodd" clip-rule="evenodd" d="M40.575 87.475C41.577 88.937 42.5522 90.4173 43.5 91.915H43.575C43.4684 90.2989 43.415 88.6797 43.415 87.06V78.375H45.39V94.695H43.4275L37.1025 85.595C36.0948 84.1376 35.1196 82.6581 34.1775 81.1575H34.1025C34.2075 82.645 34.26 84.3825 34.26 86.365V94.695H32.2975V78.375H34.2475L40.575 87.475ZM51.44 92.9H59.7025V94.695H49.4775V78.375H59.2575V80.1675H51.44V85.4375H58.39V87.23H51.44V92.9ZM68.86 94.695H66.895V80.17H61.51V78.375H74.245V80.1675H68.86V94.695Z" fill="white"/>
<path fill-rule="evenodd" clip-rule="evenodd" d="M8.06 38.41V9.07998C8.06 8.86748 8.5125 8.26498 8.8675 8.26498H74.81V0.102482H8.865C5.555 0.099982 0 1.26998 0 9.07998V38.41C0 43.9475 3.3975 47.39 8.8675 47.39H49.8175V39.225H8.8675C8.4925 39.225 8.06 38.79 8.06 38.4075V38.41Z" fill="#D3452E"/>
<path fill-rule="evenodd" clip-rule="evenodd" d="M66.85 28.59V57.92C66.85 58.135 66.3975 58.735 66.0425 58.735H0.0999756V66.8975H66.0425C69.3525 66.8975 74.91 65.73 74.91 57.92V28.59C74.91 23.0525 71.5125 19.61 66.0425 19.61H25.0925V27.7725H66.0425C66.4175 27.7725 66.85 28.21 66.85 28.59Z" fill="#D3452E"/>
</g>
<defs>
<clipPath id="clip0_601_19">
<rect width="75" height="95" fill="white"/>
</clipPath>
</defs>
</svg>
